<svg xmlns="http://www.w3.org/2000/svg" width="92.736" height="88.804" viewBox="0 0 92.736 88.804">
  <defs>
    <style>
      .cls-1 {
        fill: #692623;
      }
    </style>
  </defs>
  <g id="Grupo_736" data-name="Grupo 736" transform="matrix(0.875, -0.485, 0.485, 0.875, -38.645, -26.743)">
    <path id="Trazado_5727" data-name="Trazado 5727" class="cls-1" d="M91.893,88.921l-58.2,1.417c-1.811-5.076-8.04-8.824-15.468-8.824C9.375,81.514-1,86.82-1,93.365S9.375,105.216,18.22,105.216c7.429,0,13.658-3.747,15.468-8.823l58.2,1.417Z" transform="translate(0)"/>
    <ellipse id="Elipse_30" data-name="Elipse 30" class="cls-1" cx="2.078" cy="1.922" rx="2.078" ry="1.922" transform="translate(19.345 108.687)"/>
    <ellipse id="Elipse_31" data-name="Elipse 31" class="cls-1" cx="2.078" cy="1.922" rx="2.078" ry="1.922" transform="translate(16.142 118.054)"/>
    <ellipse id="Elipse_32" data-name="Elipse 32" class="cls-1" cx="2.078" cy="1.922" rx="2.078" ry="1.922" transform="translate(6.057 111.345)"/>
    <ellipse id="Elipse_33" data-name="Elipse 33" class="cls-1" cx="2.078" cy="1.922" rx="2.078" ry="1.922" transform="translate(9.26 114.468)"/>
    <ellipse id="Elipse_34" data-name="Elipse 34" class="cls-1" cx="2.078" cy="1.922" rx="2.078" ry="1.922" transform="translate(9.736 121.176)"/>
    <ellipse id="Elipse_35" data-name="Elipse 35" class="cls-1" cx="2.078" cy="1.922" rx="2.078" ry="1.922" transform="translate(6.533 127.739)"/>
    <ellipse id="Elipse_36" data-name="Elipse 36" class="cls-1" cx="2.078" cy="1.922" rx="2.078" ry="1.922" transform="translate(19.345 130.702)"/>
    <ellipse id="Elipse_37" data-name="Elipse 37" class="cls-1" cx="2.078" cy="1.922" rx="2.078" ry="1.922" transform="translate(9.736 133.665)"/>
  </g>
</svg>
