<svg xmlns="http://www.w3.org/2000/svg" viewBox="0 0 3069 734"><defs><style>.cls-1,.cls-2{stroke:#42210b;stroke-miterlimit:10;}.cls-1{stroke-width:3px;}.cls-2{stroke-width:2px;}</style></defs><g id="Capa_1" data-name="Capa 1"><path d="M1391,495.33l9.73-12.09-1-1.37a25,25,0,0,1-3.46,0c-3.9-.56-6-2.42-4.91-6.75,1.17-4.61,2.48-9.23,3.19-13.93.77-5,1.83-10.51-4.37-12.11,4.2-2.46,8-5.42,12.37-7s9.19-2.2,13.87-2.63c3.45-.31,5.45-1,5.71-5,.1-1.52,1.83-3.26,3.26-4.29,1.59-1.16,3.73-1.52,5.53-2.44,7.7-3.92,7.17-4.4,5.11-12.47-1.61-6.32-1-13.21-1.46-20.94l-7.28-2.39a20.72,20.72,0,0,1,3-2.62c13.06-7.14,17-19.12,17.36-32.88a10.27,10.27,0,0,0-2.18-6.53c-5.2-5.84-7.16-12.72-7.71-20.23a33.64,33.64,0,0,1-.37-3.85c.73-13.62-5.78-21.88-18.32-26.85-9.37-3.72-11.06-8.29-9.55-18.48.36-2.45.47-4.93.69-7.4l1.46-.33c.53,2.37,1.83,4.89,1.44,7.1-1.49,8.44,2.35,13.24,9.72,16.29s14.14,7,17.34,15.15c.57,1.45,3.38,2.11,5.23,3,3.57,1.68,7.14,3.38,10.81,4.83,5,2,10,4.33,15.27,5.42,6.81,1.41,13.85,1.76,20.8,2.47a4.46,4.46,0,0,0,3-.57c6.11-5.33,8.35-14.74,5.27-22.64-2.55-6.52-1.62-12.47,3.06-17.42,6.54-6.92,8.6-15,8.34-24.26-.34-11.74,3.49-22,12.31-30.21,1.7-1.58,2.62-4.32,3.22-6.69,1.74-6.82,6.58-10.59,13.2-9.83,6.4.74,10.55,6.05,10.22,13.68-2.08-1.14-3.88-2.3-5.82-3.16-4.84-2.13-7.72-.9-8.32,4.18-.47,3.93-2.33,6.15-5.42,8.27a28.48,28.48,0,0,0-12.74,22.79c-.58,10.82-3.09,20.64-11,28.62-3.69,3.75-4.68,8.17-2.14,13.14,3.75,7.35,3.35,14.08-3,20.07-2.56,2.43-2.82,4.74.92,7,4.16,2.48,3.92,7.5-.84,15.42-.23-3.58-.32-5.93-.54-8.27-.28-3-1.86-4.92-4.66-2.8-4.79,3.64-9.54,1.82-14.24.56-6.92-1.85-13.83-3.84-20.54-6.31-3.36-1.23-6.33-3.57-9.38-5.55-1.69-1.09-3-2.76-4.81-3.63-4.54-2.25-6.49-.87-6.38,4.08.21,9,1.63,17.43,8.32,24.42,1.86,1.94,2.37,5.79,2.37,8.77,0,7.91-.35,15.89-9.68,30.9l3.7,2.75a5.13,5.13,0,0,1-.26,1.69c-7.32,12.23-7,16,1.5,27.22.85,1.12.89,4.14,0,5-4.06,4.2-8.58,7.93-12.88,11.88a32.25,32.25,0,0,0-2.62,3.08c1.42.31,2.94,1.11,4.23.85,19.3-3.91,38.57-8,57.84-12,9.6-2,19.2-3.3,29-1.54,2.08.37,4.39-.55,7.45-1l15.6,26.52c1.81-2.11,2.9-3.5,4.12-4.77,5.12-5.3,13-4.59,18.91,1.84,1.85,2,3.3,4.18,6.18,1.47,2.46-2.32,6.45-4.14,3.74-8.44-2.41-3.81-1.9-7.26,1.06-10,9.07-8.29,9.47-18.8,7.53-29.58a33.08,33.08,0,0,1,2-18.81c2.22-5.6,3.76-11.46,5.88-18.11.86,1.59,1.85,2.58,1.81,3.51-.13,2.91,0,6-1.13,8.64a52.64,52.64,0,0,0-3.29,30.12c1.59,9.29,0,18.72-7.06,26.28-1,1.08-1.31,3.89-.65,5.3,2.9,6.25,1.7,11.21-3.27,15.88-4.13,3.88-7.77,8.28-12.48,13.38-2.24-4.28-3.66-7.32-5.37-10.2-3.52-5.91-7.27-6.26-10.63-.53-1,1.64-.15,5.28,1.14,7.09,8.53,12,17.62,23.57,26.07,35.61a69.84,69.84,0,0,1,8,15.5c1.34,3.57,2.28,7.93-1.71,11.17-.52.43-.58,1.65-.55,2.49.31,8,1,16,1,24.06,0,6.27-2.73,8.2-8.46,6.09-8-3-15.44-1.65-23.63.1-11.21,2.4-23,3-34.48,3-20-.08-40-1.44-60-1.87-5.65-.12-11.39,1.9-17,1.52-11.33-.77-22.57-2.82-33.89-3.77a235.09,235.09,0,0,0-26.41-.71c-4.67.13-6.45-1.05-5.89-5.76a81.59,81.59,0,0,0,0-8.78c-4.06,1.09-7.3,2.58-10.59,2.73-8.79.38-17.63.6-26.4.12-9.61-.53-19.13-1.46-28,1.67-2.13-.66-4.33-2.06-6.38-1.87-24.21,2.22-48.15-.11-72-4-.36-.06-.93.06-1.07-.13-4.22-6.06-8.34-1.23-12.1.4-11.34,4.9-23.27,6-35.19,4.64a477.27,477.27,0,0,1-49-7.88c-23.33-5.25-46.53-4.62-69.65-.33-22.76,4.23-45.27,9.74-67.91,14.63-3.33.72-6.74,1.15-10.11,1.71l-.6-2c6.07-2.09,12-4.55,18.24-6.15,4.86-1.25,7-3.51,5.62-9.9l-27.6,12.3-.95-1.6c3.45-2.42,6.76-5.08,10.39-7.19a83.32,83.32,0,0,1,12.38-6c5.09-1.94,9.6-3.87,9-10.59-.07-.88,1.43-1.89,2.52-3.23,2.89,7.63,2.85,7.51,10.28,5.34,6.17-1.8,12.44-3.28,18.67-4.88,3.72-1,7.83-1.33,8.06-6.65,0-.71,1.41-1.36,2.16-2,.63.75,1.73,1.46,1.81,2.26.37,3.87,2.77,3.5,5.58,3.22a228.09,228.09,0,0,1,60.52,2.18c3.27.55,6.55,1.11,9.84,1.37,5.14.4,11,2.94,14.18-6,2.62,9.91,9.56,7.92,15.47,8.23,7.72.41,15.45.83,23.18.75,2.07,0,4.16-1.78,6.16-2.88.88-.49,1.55-1.8,2.35-1.83.63,0,1.25,1.41,2,2.07,1.73,1.53,3.31,3.61,5.36,4.35,4.44,1.62,9.14,2.55,13.74,3.76l.28,1.62-12.3,3.06.07,1.18c7.52,0,15.16.73,22.48-.5,1.89-.32,2.75-6.78,4.08-10.43l-1.59-1.1-11.33,3.52a26,26,0,0,1,1.4-3.7c11.35-19.14,22.38-38.48,34.29-57.26,4.56-7.18,10.67-13.6,17-19.41s8.41-5,11.77,3.07c8.8,21,17.62,42.05,26.16,63.18,1.9,4.73,4.15,6.36,9.66,6.38,16.7,0,33.39,1.24,50.1,1.87,1.46,0,3.61-.32,4.34-1.3,5.15-6.93,10.06-14,14.92-21.17.79-1.16,1-2.75,1.44-4.14Zm139.72-59.69-3.56,8.56c-9.45,22.54-18.1,45.47-32,65.84-.65,1-1.49,2.65-1.09,3.34,2.88,5-1.16,6.51-4.15,7.37a61.1,61.1,0,0,1-15.59,2.68c-18.78.33-37.56.11-56.34.23-6.33,0-7.94,2.46-5.79,7.76,1.89-1,3.7-2.52,5.74-2.94,1-.21,3.43,1.5,3.48,2.44.32,6,.16,12,.16,18.48-4-.38-7.25-.74-10.5-1-4.21-.31-6.66-2.23-5.88-6.71,1-5.75,2.27-11.45,3.52-17.7-7.05,0-14.71-.17-22.35.19-1.09.06-2.82,2.69-2.93,4.21-.44,6.42-.28,12.88-.54,19.31-.18,4.27,1.51,5.47,5.83,5.73,13.36.78,26.68,2.45,40,3.28,6.91.43,14,.61,20.8-.47,17-2.71,33.87-5.17,51.07-3.55,4.39.41,5.67-1.11,6.11-5.37.71-6.88,2.29-13.66,3.51-20.49l1.82.28a64.91,64.91,0,0,1,4.41,27.48c-.16,3.68.92,5.23,5,5,13.22-.87,26.43-1.2,39.1-6a34.72,34.72,0,0,1,13-1.75c4.41.12,5.35-1.58,5.24-5.48-.12-4.56-.23-9.26.67-13.68,1.31-6.37,1.51-6.76-4.81-7-15.44-.64-30.91-1-46.35-1.7-10.77-.49-21.52-1.36-32.29-2.06,0-.6,0-1.19.07-1.78,27.73-10.21,56.25-4.82,85.09-3.62-7.6-16.46-19.42-29.62-29.19-45-.85,8.53-6.48,8-11.4,7.31a182.29,182.29,0,0,1-18.82-4.18c-.92-.23-1.55-1.56-2.63-2.74l32.13-2.16Zm-2.53-7.51c-2.61.53-3.49.63-4.32.89-9.43,2.86-18.68,6.58-28.3,8.47-22.28,4.37-44.71,8-67.14,11.54-3.85.61-5.57,2.15-7.36,5.33C1412.21,470,1403.24,485.6,1394,501c-3.65,6.07-8.26,11.56-12.82,17.85a24.79,24.79,0,0,0,4.59.8c13.6-.37,27.22-.44,40.78-1.37,20.35-1.38,40.66-3.32,61-5.25a7,7,0,0,0,4.9-3.12c7.53-15.52,15.05-31.06,22-46.84C1519.25,452.06,1523.25,440.67,1528.15,428.13Zm-220.93,92c-9.65-24.65-18.9-48.27-28.14-71.89-10.18,4-45.57,57.92-45,68.77Zm-43.49,7.57c-8-1.4-16.08-2.85-24.18-4.22-2.83-.47-3.93.8-3.91,3.71.09,12.37-.08,10.85,9.94,11.72,1.09.09,2.18.29,3.27.46,14.62,2.26,11.61,2,15.24-10.14A7.86,7.86,0,0,0,1263.73,527.74Zm-209.28.35c-.27-.23-1.87-2.54-2.87-2.31-9.28,2.19-18.51,4.63-27.56,7.59-1,.34-1.38,4.36-1.1,6.55.13,1,2.81,2.47,4.05,2.23,7.38-1.4,14.64-3.45,22-4.84C1053.42,536.49,1054.77,534,1054.45,528.09Zm226.47,6.74c-1.23,4.39.5,5.12,4.21,4.58,7.77-1.12,15.59-1.85,23.38-2.83,1.93-.24,4.88-.23,5.49-1.35,1.11-2.05,1.84-5.51.79-7.14-.86-1.35-4.54-1.37-6.92-1.2-6.73.48-13.42,1.71-20.16,2C1283.14,529,1280,529.6,1280.92,534.83Zm97.92-6.22c-9.21.36-18,.6-26.85,1.15-1.93.12-4.71.85-5.46,2.2-1,1.82-1.29,5.12-.24,6.66.81,1.18,4.19,1,6.39.78,7.71-.6,15.07-5,23.19-2,.63.24,2.68-1.29,2.83-2.21A36.11,36.11,0,0,0,1378.84,528.61Zm38.37-78.08c-9.53-2.37-16.16-.7-16.82,4.67-.89,7.17,0,14.56.17,21.86l2.68.57Zm-338.75,72.22c-4.39.21-8.29.07-12,.73-1.67.29-4.53,2.75-4.33,3.29,1,2.64,2.91,7.11,4.32,7a156.13,156.13,0,0,0,23.34-3.21c1.22-.25,2.32-3.36,2.52-5.24.08-.72-2.45-2.33-3.91-2.49A89.55,89.55,0,0,0,1078.46,522.75Zm239.3,18.77c6-.39,10.82-.34,15.43-1.21,1.65-.31,3.86-2.71,4.12-4.42.86-5.54-1.43-8-7.34-8.31-3.13-.15-8.19-.62-9.08.95C1318.8,532.16,1318.71,536.93,1317.76,541.52Zm-173.35-9.33c-15-2.82-29.71-8.14-45.69-8.7.49,5.6,3.19,6.6,7.23,6.75C1118.78,530.71,1131.59,531.52,1144.41,532.19Zm48.22,6.31.36-3.15-33.38-2.3c-.07.89-.15,1.77-.22,2.66Z"/><path d="M1698,580.7c-10.89-3.66-22-5.49-33.76-3.35-.19-.66-.39-1.32-.59-2,1.82-.92,3.63-2.59,5.46-2.62,6.94-.1,13.9.32,20.85.57,8.63.32,17.25,1,25.87.88,6.31-.1,7-1.93,6.18-8.16-1.61-12.21-3.13-24.46-4.08-36.74-1.28-16.47-4.35-32.41-11.39-47.47-1.59-3.41-2.93-6.93-4.43-10.51,4-3,8.44-2.47,11.28,3.11a88,88,0,0,1,7.08,20.12c1.08,4.69,2.8,5.77,7.39,5.47,11.19-.73,22.43-.52,33.62-1.27a81.07,81.07,0,0,0,17.88-3.22c7.06-2.13,13.59-2.41,20.31,1,2.08,1.07,4.83.85,7.27,1.22.33-2.22.66-4.44,1.11-7.41h7.9c-.65,2.28-1.13,3.94-1.82,6.33,1.71.07,3,.2,4.34.19,10.12-.13,20.23-.58,30.34-.33s10.14.54,11.65-10.66c-17.85,1.19-35.7,4.42-54-.92,3.72-5.26,7.26-10.08,10.6-15s6.6-9.74,9.42-14.88c2.49-4.53,5.8-6.92,11-6.7a96.93,96.93,0,0,0,9.94,0c10.32-.63,20.64-1.41,32.1-2.21-1.84-8.52-3.46-15.78-5-23.06-1.1-5.32-2.61-10.64-2.84-16-.15-3.74-1-5.69-4.72-5.77-4.5-.1-7.78-1.6-9.22-6.26a3.9,3.9,0,0,0-2.74-2.16,133.94,133.94,0,0,0-14.84-.84c-6.36.09-10.8,3.67-13.12,9.35-1.7,4.17-4,6.22-8.65,7.2-3,.65-6.15,3.76-8,6.58-2.23,3.48-3,7.84-4.66,11.75-1,2.46-2.38,4.78-3.59,7.17l-1.48-.31c0-1.28-.31-2.65.06-3.81,1.82-5.78,3.52-11.63,5.84-17.21a14.44,14.44,0,0,1,11.46-9.31c1.7-.29,3.57-2.36,4.47-4.08,5.25-10,12.38-13.7,23.43-12.26,3.57.47,7.32-.39,10.92-.05,2,.19,5,1.18,5.53,2.59,1.54,3.77,3.93,4.9,7.66,4.86s7.6.3,12.74.54c-5.21,11.28-1,20.58,2.81,30.23,1.41,3.6.5,8.39-.24,12.48-.6,3.29.27,5.09,2.76,7a111.59,111.59,0,0,1,30.8,36.32,15,15,0,0,1,1.43,3c2.42,8.65,2.41,8.48,11.57,8.61,20,.27,40.12,1.46,60.14.88,15.77-.46,31.51-2.78,47.2-4.73,14.13-1.76,27.59-1,39.58,7.68,10.85,7.81,22.39,6.87,34.28,3.1,13.09-4.16,26.46-7.95,40-3,9.76,3.59,19,8.7,28.37,13.25,4.55,2.2,9,4.66,13.87,7.22-1.27.48-3.15,1.89-4.81,1.68-5.4-.69-10.91-1.43-16-3.18-7.3-2.49-14.21-6.06-21.4-8.88-12.72-5-25.45-2.65-38,.73-15.31,4.14-29.35,3-42.22-7.27-11.12-8.86-24.25-7.4-37.09-5.62a443.65,443.65,0,0,1-104.09,1.65c-4.28-.42-8.57-2.08-10.92,3.95-.56,1.44-5,2.35-7.37,1.95-13.61-2.29-27.14-1.4-40.67.33-2.39.3-4.59,2-7,2.4a35.53,35.53,0,0,1-10.46.63c-8.87-1.23-17.64-3.22-26.51-4.41a9.94,9.94,0,0,0-7.08,2.12c-8.17,7.25-16.9,6.73-25.59,1.94-5-2.73-9.68-3.37-15.22-3.05-17.25,1-34.54,1.36-51.81,2-7.12.28-7.56.57-7.13,7.79q1.67,28.35,3.88,56.69c.17,2.19,2.29,4.22,3.92,7.05l-6.76,9c2.66.53,5.38,1.26,8.15,1.6,25,3.08,50,1.78,74.85-1.68,11-1.53,22-3.51,33.07-4.85,4.32-.53,5.66-2.31,5.35-6.4a62.85,62.85,0,0,0-7.64-26.08c-5.44,3.65-5.48,5.41-.66,9-1.86,10.15-1.86,10.15-7.53,6.08-3.74,2.59-2.54,9.36-9,10.77a21.72,21.72,0,0,1,.27-4c2.59-9.36,5.53-18.63,7.81-28.06,1.82-7.55,3.91-7.77,10.67-4.87,7.42,3.2,8,8.56,8.42,14.88.55,7.71,1.15,15.41,2.07,23.08.19,1.62,1.56,4,2.92,4.43,8.59,3,17.54,2.91,26.43,1.77a7.77,7.77,0,0,0,4.91-3.32c1.68-2.76,2.57-3.79,4.83-.49a6.56,6.56,0,0,0,4.61,2.55c5.14.09,11.07,1.13,15.26-1,6.06-3.08,11.56-1,17.3-1.27,15.22-.79,30.43-1.94,46-2.23-3.11,1.24-6.13,2.83-9.34,3.66-10.67,2.77-21.59,4.73-32.08,8-10.25,3.22-20.62,1.72-30.91,2.54-3,.24-6,1.29-9,1.93a19.45,19.45,0,0,1-4.3.73c-8.78-.18-17.8-1.85-26.28-.39-11.88,2.05-23.69-.64-35.42,1.3-2.56.42-5.05,0-5.1,4.09,0,1-3.72,2.61-5.87,2.88-3.57.44-7.27-.23-10.87,0-27.35,2-54.69,4.19-82,6.21-19.09,1.4-38.21,2.46-57.29,4-33.11,2.66-66.14,2.39-99.11-1.85-10.3-1.33-19.62-5-27.57-11.68-7.46-6.3-16.49-7.49-25.68-8.41-5.37-.53-10.73-1.15-16.09-2.16,12.17-2.57,24-3.69,36.35,1.07,9.33,3.61,19.5,5.15,29.37,7.21,1.56.32,3.56-1.49,5.35-2.31-1.46-1.54-2.67-3.94-4.44-4.46-6.47-1.92-13.13-3.22-19.72-5.46h28.51c4.63,5.52,12.44,7.32,20.5,3.87a3.71,3.71,0,0,1,3-.1c7,5,14.58,1.44,21.87,1.67,1,0,2.09-2.08,3-3.31s1.5-2.45,2.51-4.14c3.63,7.1,3.62,7,11,6.16,4.94-.57,10-.53,14.83-1.44,4.38-.82,8.58-2.57,12.35-3.75,4.21.64,8.34,1.59,12.51,1.84,6.79.39,13.61.34,20.41.46,2.09,0,4.19,0,6.28,0Zm211.34-98.62c.35-.83.69-1.66,1-2.48-2.69-3.05-5.33-6.16-8.08-9.14-6.17-6.68-12.31-13.38-18.72-19.82-.67-.67-3.79-.23-4.52.68-4.68,5.88-9.27,11.87-13.34,18.17-1.93,3-2.91,6.69-3.75,10.2-.24,1,1.58,3.52,2.44,3.51C1879.39,483,1894.36,482.51,1909.34,482.08Zm-89.56.05c.13.7.27,1.41.4,2.11,11.22-.87,22.45-1.65,33.65-2.75,1.18-.11,2.51-1.95,3.19-3.28,3.29-6.46,6.37-13,9.55-19.54.65-1.34,1.4-2.63,2.23-4.18-7.1.75-13.42,2.09-19.71,1.92-9.07-.24-14.9,2.64-18.52,11.57C1828.42,473.28,1823.47,477.45,1819.78,482.13ZM1698.36,590.54c-1.38-1-1.93-1.84-2.51-1.86-11-.24-22-.47-33-.41-1,0-1.91,2.09-2.86,3.21,1.22.82,2.46,2.34,3.67,2.33q15.18-.22,30.34-1C1695.31,592.74,1696.56,591.51,1698.36,590.54Zm-61.52,5.07v-.22c4.74-.33,9.52-.43,14.19-1.16,1.2-.19,2.09-2.37,3.13-3.63-1.14-.63-2.33-1.86-3.42-1.78q-12.57.93-25.1,2.42c-1,.12-1.87,1.71-2.8,2.62,1,.58,2,1.61,3,1.67C1629.52,595.74,1633.19,595.61,1636.84,595.61Zm1.53,4v.27c-3.85.21-7.71.24-11.52.74-1.12.15-2.06,1.62-3.08,2.49.88.95,1.79,2.76,2.65,2.73,7.31-.21,14.63-.65,21.91-1.33.89-.09,1.6-2,2.39-3.09-1-.61-2-1.65-3-1.73C1644.6,599.46,1641.48,599.61,1638.37,599.61Zm228.72-112c1.49,10.94,4.52,13,12.78,8.87,2.12-1.06,3-4.5,4.51-6.85-1.85-.67-3.67-1.77-5.56-1.93C1875.06,487.42,1871.26,487.64,1867.09,487.64ZM1693,599.87l-.18-.77c-9.42,0-18.83-.1-28.25.1-1.44,0-2.85,1.44-4.28,2.22,1.56.78,3.17,2.32,4.66,2.21,8-.55,16-1.48,24-2.39A19.6,19.6,0,0,0,1693,599.87Zm213.43-112.65c-2.37,0-3.83,0-5.3,0-3.49,0-4.09,2.12-2.91,4.78,2,4.59,6.13,2.07,9.24,2,1.57,0,4.24-2,4.45-3.42C1912.78,484.75,1908,487.84,1906.45,487.22Zm-316,109c-3.18-4.23-16.32-7.27-18-5.31-.6.72.12,3.83.48,3.87C1578.27,595.44,1583.67,595.76,1590.41,596.24Zm7,8c.18.59.37,1.17.55,1.75,4.47,0,8.94.17,13.38-.14.91-.07,1.7-1.92,2.54-3-1-.63-1.92-1.76-2.93-1.81a50.23,50.23,0,0,0-9.89.25C1599.7,601.51,1598.59,603.21,1597.38,604.22Zm-.66-11c5.13,4.1,16.64,3.57,20,0Zm-24.85,10.55c5.52.56,9.59,1.09,13.68,1.31.76,0,1.71-1.08,2.31-1.87.17-.22-.45-1.31-.95-1.73C1584.75,599.67,1575.62,600.34,1571.87,603.77Zm-9.59-2.14.45-2.38-14.08-2.62-.39,2.07C1552.79,600.45,1557.06,603.51,1562.28,601.63Z"/><path d="M885,453.29c3.64-.71,7.28-1.45,10.93-2.11,3.48-.63,7-1.16,11.48-1.9-5.87-3.08-5.87-3.08-22.92-2.18l13.15-14.44c1.33,9.26,7.05,10.4,13.5,10.77,3.93.22,5.23-1.5,5.37-5.12.59-14.89,1.35-29.78,1.89-44.67.05-1.24-.71-3.34-1.61-3.67q-11.54-4.26-23.29-7.89c-1.56-.48-3.5.29-5.59.52l.46,5.86c-4.61-1.38-8.36-2.59-8.87-7.84a3.92,3.92,0,0,0-1.32-2.67c-11.65-7.51-10.8-18.65-8.74-30.05a50.91,50.91,0,0,1,2.78-8.95c3.39-8.95,3.88-17.61,0-26.79-4.11-9.74-1-19.87,7.29-26.15,3.17-2.39,3.77-4.79,3.3-8.45-2.46-19.36,7.07-39.88,22.38-48.27,3.95-2.16,8.22-3.93,12.28.34C904,232.05,896.43,240.79,891.35,252c-4.19,9.26-5.72,19-2.58,29,1.15,3.67.36,5.81-3.49,7.74-7.95,4-11.15,12.15-6.95,20,6.68,12.52,4.41,24.57,1.69,37.48-1.78,8.51-.39,17.78.23,26.66.29,4.11,3,6.36,7.81,5.25,7.42-1.69,14.56-.32,21.52,2.77,10.59,4.69,15.81,3.3,23.06-5.71,1.5-1.86,2.79-3.88,4.16-5.83,3.63-5.18,3.62-5.18,10.66-5.66-.53-5.37-.73-10.81-1.66-16.12-1.59-9-1.16-17,4.38-25.15,6.45-9.52,4.22-20.2-.84-30-3.54-6.84-8-13.23-11.62-20-2.93-5.47-4.07-11.25-2.08-17.55,2.21-7.05.79-9.59-6-12.48-1.69-.73-3.44-1.32-5.18-1.92s-3.22-1-5.3-1.71c6.48-5.55,14.75-6.25,20.39-2.3,6.38,4.47,8.74,11.22,5.74,18.4-2.58,6.15-1.86,11.76.87,17.54,3.61,7.64,7.5,15.21,10.36,23.13,4.24,11.73,3.53,23.15-4.6,33.38-.79,1-1.75,2.24-1.75,3.38,0,8.63.22,17.26.37,25.9l2.15.49c1.29-1.12,2.59-2.23,3.87-3.36,6.31-5.6,14.48-6.94,20.6-1.38,6.41,5.83,11.38,13.28,16.79,20.17.87,1.11.76,3,1.12,4.58-5.51,2.3-9.26.46-12-3.59s-4.66-8.34-7.21-12.38c-5.55-8.78-14.26-8.62-19.45.54-1.77,3.12-2.36,6.9-3.6,10.35a10.71,10.71,0,0,1-3.6,5.24l-1.61-6c-1.42,1.37-2.48,2.37-3.52,3.4-2.85,2.85-5.26,6.47-8.63,8.39-4.84,2.76-7,6.53-7.85,11.69-2.24,13.75-4.6,27.49-6.89,41.24-.73,4.39.93,6.45,5.66,6.33,6.62-.16,13.25.35,19.87.22,7.51-.16,8.43-1.1,9.38-8.51.23-1.79-.33-3.68-.09-5.46a39.16,39.16,0,0,1,1.62-5.63,39.87,39.87,0,0,1,3.3,5.06,22.56,22.56,0,0,1,1.39,5.31c1,5.45,3.61,8.12,9.5,6.31,2.73-.84,4.28,0,4.72,3.37,1.13,8.66,2.79,17.26,4.17,25.9.47,2.9,1.79,3.88,4.89,3.7a63.37,63.37,0,0,1,13.7.51c3.71.6,5-.26,5.14-4,.29-8.64.83-17.28,1.28-25.91.32-6,4-9.87,8.95-14.34,1.36,4,2.63,6.93,3.35,10,.81,3.53,2.94,4.84,6.29,4.9a68.43,68.43,0,0,1,7.17.33c3.93.49,7,.21,7.13-4.93,0-1.12,1.51-2.21,2.33-3.32,1,.92,2.66,1.67,3,2.8,2,7,7.19,7.52,13.28,7.46,15.09-.15,30.21-.18,45.29.33a54.83,54.83,0,0,1,16,3.34c4.13,1.44,5.22.58,5.58-3.45.28-3.05,1.46-6,1.93-9,.18-1.22-.5-2.57-.78-3.85-1.1.37-2.47.46-3.25,1.18-6.83,6.31-12.63,6.71-20,1-4.78-3.74-9.42-7.65-14.1-11.52-2.71-2.25-4.75-2.72-6,1.49-.31,1.07-2.28,2.75-2.72,2.54-4.47-2.12-9.08-4.17-13.06-7.06-3.21-2.33-5.59-5.8-8.35-8.75-6.08-6.48-8.24-14.27-7.06-22.9.3-2.18,2.08-4.16,3.18-6.23l1.16.78c.24,4.78-.27,9.76.89,14.31,2.45,9.7,11.29,16.26,21.36,16.89a5.13,5.13,0,0,1,2.15.23q11.34,7.18,22.59,14.49c2.3,1.49,4.37,3.44,6.82,4.59,3.94,1.86,7.56.72,9.15-3.32,2.05-5.26,5.49-5.37,9-2.62,6.41,5,12.67,4,19.11.64,7.51-3.9,15.08-6.68,23.82-4.18,1.56.44,4.49-.94,5.58-2.39a164.64,164.64,0,0,0,11.3-16.86c1.8-3.12,3.65-3.95,7.25-4.32,5.51-.58,10.85-2.78,16.23-4.38a22.48,22.48,0,0,0,3.35-1.6c1.12,9-7.23,14.81-14.87,16.61a13.26,13.26,0,0,0-6.06,3.7c-3.82,4-7.19,8.34-10.88,12.42-4.26,4.74-9.3,6.35-15.38,3.48-1.06-.5-2.4-.41-4.56-.73,2.09,7.59-2.67,8.8-8,10.37-2.29.68-5.28,3.71-5.51,5.93-1.26,12.06-1.76,24.19-2.47,36.3a9.13,9.13,0,0,0,.83,2.56,23.21,23.21,0,0,0,3.34-1.74c13.19-10.06,26.7-19.62,42.13-26,4.05-1.68,5.38-4.07,4.65-8.53a124,124,0,0,1-1.88-20.32c0-5.07,1.57-10.14,2.44-15.21l2.81-.21c1.4,3.76,3.8,7.46,4,11.28.59,10.45.42,21,.13,31.45,0,1.55-2,3.93-3.61,4.44-16.16,5.17-30.42,13.78-44,23.7a8,8,0,0,1-1.84,1.2c-7.38,2.63-9.67,7.64-9.67,15.51,0,4.62-4,9.25-6.12,13.87l-1.53-.21a36,36,0,0,1-.68-4.91,71.67,71.67,0,0,0-8-32.91c-3.59-6.85-6-13.8-5.4-21.61a8.34,8.34,0,0,0-.5-2.66c-.09-.31-.45-.55-1-1.17-16,8.31-32.73,2.68-49.16,1.55-16.88-1.17-33.66-3.73-50.5-5.56-3.93-.43-7.29-1.12-8.1-5.84-.14-.82-1.34-1.47-2-2.2a14.06,14.06,0,0,0-2.26,2.66,6.78,6.78,0,0,0-.21,2.73c-.31,12.69-.67,25.39-.89,38.08-.12,7.18.35,7.59,7.45,7.36q45-1.44,90-2.93c7.63-.24,15.1.53,21.87,4.53a15.13,15.13,0,0,1,2.24,1.55,13,13,0,0,1,1.38,2.31c-9.11.53-17.63,1.5-26.13,1.41-29.82-.32-59.63-1.15-89.45-1.51-11.22-.13-12-.53-12.17-11.59a16.8,16.8,0,0,0-.18-2.75c-.09-.49-.47-.94-1.4.09-3.21-1.1-6.66-1.76-9.59-3.38-6-3.3-10.42-1.45-11.36,5.2C980,493.77,975.51,498,967,497.59c-25.57-1.15-51.12-2.58-76.66-4-2.94-.17-5.83-1.23-8.75-1.88l.22-1.68c4.67,0,9.34-.13,14,0,23,.74,46,1.65,69,2.31,9.26.27,11.94-2.8,11.05-12-.64-6.6-1.53-13.16-2.18-19.76-.47-4.83-2.47-6.28-7.65-5.72-18.64,2-37.33,3.95-56,4.76-8.21.35-16.55-2.07-24.83-3.24Zm253.92,38,1.48-.11a35.86,35.86,0,0,0,.37-5c-.38-6.4-1-12.78-1.34-19.18-.36-8.18-.4-16.38-.75-24.56,0-1.09-1.1-2.13-1.69-3.2-1,1-2.75,1.9-3,3.06-1,5.39-1,11-2.36,16.27C1128.51,470.92,1136.2,480.43,1139,491.26Z"/><path d="M983,567c.9,9.91-.51,20.86,10.29,26.59.84-.68,1.23-.85,1.38-1.14.87-1.78,1.69-3.59,2.53-5.39.92,1.77,2.34,3.46,2.66,5.33.81,4.62,3.3,7.14,7.83,8,4.33.86,8.64,1.85,12.9,3,3.72,1,5.61-.06,5.86-4.07.08-1.39,1-2.72,2.85-4,.43,1.07,1.29,2.18,1.21,3.2-.5,5.88,2.57,7.59,7.9,7.94,11,.72,22,1.89,33,2.9,4.38.4,8.56.55,9.52-5.3.07-.46,1.13-.77,1.73-1.14,4.07,6.55,4.07,6.54,12,5.9,4.22-.34,8.78.26,12.59-1.15,5-1.86,9.85-2.08,15.06-2.6,11.4-1.15,22.54-5.07,33.71-8.16,1.56-.43,2.75-2.52,3.89-4,.86-1.12,1.36-2.52,2.89-5.48,1.42,7.72,5.4,6.94,9.87,6.54a138.32,138.32,0,0,1,18.21,0c3.93.18,5.71-1,5.85-5.2.06-1.7,1.83-3.34,2.83-5,.73,1.64,2.07,3.27,2.07,4.91,0,4.08,1.76,5.91,5.69,5.45,11.69-1.36,23.62-1.81,34.91-4.72a78.29,78.29,0,0,1,15.14-2.82c11.85-.75,23.61-3.52,35.27-6.13,2.6-.58,4.59-3.88,7.25-6.27,1.24,5.27,5,4.71,9.2,4.78,12.49.21,25,.92,37.46,1.69,4.37.26,7.76.11,7.92-5.51,0-1,1.44-2,2.22-3,.92.78,1.4,1,1.44,1.25,1.24,8.33,1.34,9.15,9.9,8,12.16-1.58,24.13-4.61,36.23-6.76a29.13,29.13,0,0,1,8.73.24c9.82,1.28,19.64,2.62,29.43,4.18,6.13,1,12.15,2.65,18.29,3.43,2,.26,4.23-1.32,6.37-2,1.09-.36,2.51-1.23,3.24-.85s1.38,2,1.64,3.13c.52,2.3.13,5.06,1.26,6.94,3.12,5.18.43,7-3.89,8.83a85.35,85.35,0,0,1-33.82,7.15c-28.35-.19-56.69-1-85-1.23-22.44-.16-45-.81-67.29.81-13.58,1-26.81,6.2-40.33,8.83-7.88,1.53-16.16,3-24,2.25-27.62-2.74-53.82,3-79.71,11.44-7.29,2.39-14.33,5.75-21.76,7.44-6.3,1.43-13,1.33-19.53,1.51q-59.77,1.74-109.52-31.51a4.25,4.25,0,0,1-1.93-3q12,5.58,23.94,11.13c2.84,1.31,5.76,2.43,8.56,3.82,3.21,1.61,4.86.37,5.61-2.77.66-2.79,1.28-5.58-2.73-6.49-6.82-1.54-13.56-3.47-20.44-4.67-8.59-1.51-19.28-10.74-20.53-19.36-.79-5.45-.15-11.1-.15-16.67Zm89.17,65.41c1.94-1.07,4.75-1.65,5.39-3.15,1.33-3.12,1.53-6.73,2.17-10.14s-.8-4.86-4.41-5.12c-13-1-25.9-2.23-38.86-3.27-1.25-.1-3.15.24-3.75,1.08-2.15,3.05.93,11.24,4.76,12.23C1048.8,626.93,1060.22,629.52,1072.16,632.38ZM1117.51,614c.51,3.14.75,4.78,1,6.4,1.33,7.34,2.07,7.78,9,5.69,6.33-1.9,12.59-4.23,19-5.47,7.71-1.48,11.76-5.3,12.41-13.32.4-4.88.14-5.67-4.67-4.53-10.7,2.54-21.44,5-32.08,7.77C1120.29,611.07,1118.72,613.09,1117.51,614Zm126.64-17.11-35.09,2.63c-.74.06-1.84-.18-2.14.21-1.25,1.63-2.9,3.35-3.21,5.23-.46,2.8.2,5.63,4.19,5.62,7.71,0,15.47.58,23.13-.08C1243.6,609.43,1240.93,608.92,1244.15,596.9Zm-153.21,35.54c5.71-.52,10.52-.67,15.19-1.53,1.83-.34,4.52-2.08,4.8-3.56.83-4.54.75-9.26.79-13.92,0-.31-1.9-1-2.88-.92-6.59.43-13.19.83-19.73,1.71-1.28.17-3.31,2.47-3.24,3.69a62.41,62.41,0,0,0,2.1,12.41C1088.26,631.4,1090.31,632,1090.94,632.44ZM1293.53,588c-13.57,2.3-26.72,4.35-39.79,6.84-3.84.74-3.06,4.44-1.92,6.77.62,1.27,3.42,2.43,5,2.13,6.28-1.2,12.41-3.18,18.67-4.5s12.82-2.23,19.4-3.35C1294.41,593.27,1294.09,591.37,1293.53,588Zm-113,11.24c-2.93,0-5.86-.16-8.78,0-6.31.41-7,1.31-6.11,7.39.18,1.27.38,2.53.6,3.79.5,2.9,2,3.93,5.06,3.33,5.73-1.13,11.48-2.43,17.29-2.81s5.46-4.41,5.59-8.12c.14-4.35-3.44-3.4-6-3.57S1183.06,599.23,1180.51,599.23Zm146.18-3.55v-.22c6.07,0,12.14.16,18.2-.11,1.68-.07,3.3-1.42,4.95-2.19-1.48-1.26-2.88-3.51-4.45-3.64-12.44-1-24.91-1.73-37.37-2.41-3-.17-4.81,1-4.65,4.56s2.19,4.1,5.12,4.05C1314.56,595.61,1320.63,595.68,1326.69,595.68Zm86.73-11c-.73.53-4.33,1.89-4.42,3.44-.14,2.53,1.7,7.2,3.26,7.45a107.46,107.46,0,0,0,22.45,1.19c1.86-.1,3.49-4.28,5.23-6.59-1.75-1.16-3.39-3-5.27-3.34C1428.33,585.85,1421.9,585.46,1413.42,584.66Zm-11.51,1.61c-1.81.1-3.55.07-5.25.31-10.66,1.45-21.31,2.89-31.94,4.54-1.46.22-2.76,1.53-4.13,2.33,1.44.74,2.87,2.06,4.34,2.11,9.34.27,18.7.25,28,.35C1400.31,596,1401.23,595.07,1401.91,586.27Zm53.28,11.18c.55,0,1.1,0,1.64,0,7.1-.22,9.05-1.9,9.48-8.84.06-1-1.65-3-2.45-2.9a108.83,108.83,0,0,0-14.61,1.83c-1.17.24-2.76,2.34-2.8,3.63C1446.27,596.7,1447.72,597.6,1455.19,597.45Z"/><path d="M1330.27,425.41c-2.3,6.93-4.48,13.48-6.66,20l-1.32-.08c.37-4,1-8.06,1-12.09,0-2.23-1.08-4.45-1.59-6.7-.65-2.84-2.24-6-1.59-8.49,1-4,3.49-7.64,5.51-11.35,2.36-4.34,2.48-8.29-1.06-12.15-4.4-4.79-5.41-10.73-5.09-17,.37-7.31,1.72-14.64-3.27-21.28-.85-1.13.23-4.19,1.1-6,2.43-5.15,5.52-10,7.73-15.23a13,13,0,0,0,.42-7.81c-1.7-6.37-4.29-12.51-6-18.89-1-3.86-3-4.84-6.4-3.48a49.25,49.25,0,0,0-7.36,3.71c-25,15.36-51.71,25.49-81.14,27.86-6.25.51-6.31,1.27-6.06,7.6a57,57,0,0,1-1.6,15.55c-1.21,5-.84,8.73,3,12.49,2.66,2.61,5.31,6,6.13,9.46.59,2.54-1.1,6.41-3,8.55-2.43,2.69-6.1,2.61-10-.05a18.75,18.75,0,0,1,2.85-1.57c6.8-2.09,8.23-5.83,3-10.41-7.3-6.36-10-13.29-6.29-22.44a4.7,4.7,0,0,0,.28-3.25c-4.07-9.29-1.77-19.13-2.65-28.68-.2-2.19,0-4.42,0-7.11,6.7,1.84,10.92,4.57,10.72,11.15-.13,4.48,2.71,4.55,5.89,4.21,16.46-1.74,32.2-6.11,46.77-13.95,7.74-4.17,15-9.27,22.31-14.2,6.64-4.48,12.35-11.14,21.89-7.14,1-8.63,1.58-16.29,2.75-23.87,1.83-11.81,4.19-23.53,6-35.34.63-4.11,1-8.51.24-12.51A26.15,26.15,0,0,1,1329,207.3c2.81-5.5,4-10.67.71-16.71-1.58-2.93-1.82-7.35-1-10.68,3.66-14.6,8-29,12-43.56,1.06-3.85,1.9-7.76,2.93-12,11.83,10,17.3,21.41,13.33,36.67-.78,3,1.7,6.77,2.67,10.19.78,2.73,1.91,5.41,2.26,8.19A147.61,147.61,0,0,1,1363,195a84.19,84.19,0,0,1-.66,15,95.45,95.45,0,0,1-5.45,19c-.57-1.83-1.79-3.74-1.59-5.49.54-4.71,1.89-9.33,2.51-14a65.26,65.26,0,0,0,.66-12.4c-.36-5.94-1.28-11.85-2.12-17.75a7,7,0,0,0-1.54-3.9c-5.73-5.57-6.67-12.35-5.83-19.85.27-2.41-.49-4.92-.78-7.39l-1.67.12q-2.52,9.72-5,19.46c-.91,3.56-2.33,7.11-2.53,10.71a35.36,35.36,0,0,0,1.24,12.13,21,21,0,0,1-1.77,17.52c-3.29,5.66-3.76,11.37-3.55,17.9.24,7.35-2.08,14.77-3.23,22.17-2.56,16.5-6,32.93-7.23,49.53-.6,7.87,2.18,16.33,4.89,24,2.35,6.63,2.77,12.4-.75,18.43-1.3,2.22-2.37,4.58-3.73,6.76-2.65,4.25-3.25,8.05-1.4,13.31s1,11.26.77,16.93c-.22,5.95.8,11.22,4.84,15.87,3.84,4.42,3.54,9.47,1.14,14.49-1,2-2.13,3.87-3.22,5.78C1322.69,420.66,1322.85,421.26,1330.27,425.41Z"/><path d="M1702.22,301.49c9.65,3.32,19.67,5.86,28.88,10.12,14.32,6.63,28.36,14,42,21.88,12.06,7,25.26,9.85,38.47,13,17.82,4.3,35.51,3.35,53.65,1,12.87-1.7,26.57-.75,39.41,1.64,20.87,3.89,41.65,3.66,62.65,3.4,30.9-.39,61.86-.62,92.71.84,15.64.74,31.09,5.41,46.65,8.13,6.46,1.13,13,1.81,19.87,3.44-2.23.75-4.46,2.12-6.7,2.14-10.8.12-21.83,1.26-32.37-.47-42-6.88-84.32-7-126.63-6.85-20.2.07-40-1.47-59.68-5.94a94.65,94.65,0,0,0-38.92-1.06c-20.64,3.91-40.56,1.29-60.59-3.68-13.57-3.37-25.65-9.36-37.85-16-18.18-10-37.39-18-56.16-26.87-2-.93-3.91-1.9-5.87-2.85Z"/><path d="M2112.24,411.27c10.24,12.54,6,24-1.73,35.1,13.46,11.54,15.39,29.79,4.24,47.8-.67-6.19-1.24-10.95-1.69-15.73-.46-4.94-.6-9.92-1.26-14.83-.54-4.05-2.78-6.32-7.33-6.78-2.78-.28-7.14-1.88-7.63-3.73-.66-2.5,1.23-6.11,2.88-8.7,2.35-3.68,5.81-6.66,8.14-10.35,1.5-2.39,1.81-5.52,2.66-8.32l-1.36-.79-5.37,2.42c-6.69,3-13.72.7-16.69-5.89-1.5-3.32-3.24-4-6.41-2.52-7.06,3.37-13.75,4.54-20.35-1.69-1.59-1.51-6-1.56-8.27-.54-4.61,2-8.71,5.26-13,8-5.23,3.34-10.2,7.17-15.72,9.91-5.18,2.57-8.35,6-8.41,11.76-.06,6.25.22,12.5.2,18.75,0,3.13.89,6.3-2.47,9-1.18,1,0,4.87-.71,8.15-1.34-1.83-2.68-3.67-5.06-6.91l-1.57,7.24c-5.8-2.29-7.06-8.39-3.49-14.25a21.39,21.39,0,0,0,3.09-9.42c.44-7.52-.09-15.09.22-22.62.22-5.21-2.4-7.13-7-8.09s-9.76,1.18-13.32-3.48c-.24-.31-1.67.37-2.55.44-2.72.2-5.51.81-8.15.41-10.26-1.55-13.3.07-16.88,9.9-2.56,7-2.62,14.13.74,20.89,1.62,3.27,1.55,5-1.39,7.87-2.45,2.36-3.48,6.59-4.24,10.18-.69,3.22-.15,6.7-.15,11.06-5.33-6.8-5.67-16.08-.92-22.34,2.21-2.93,2.22-5.19,1.2-8.5-3.16-10.21-2.13-20.23,4.31-28.88,2.15-2.88,6.43-5.87,9.76-5.89a323.27,323.27,0,0,1,34.32,2c6.49.66,13.06,2.27,12.58,11.79A65.65,65.65,0,0,0,2035.05,422a80.77,80.77,0,0,1,17.16-10.39c4.54-2.08,9.55-.81,13.43,2.59,3.13,2.75,6.22,2.63,9.68,1.05,1.67-.77,3.41-1.35,5.13-2,7.66-2.92,8.86-2.43,11.87,4.87,1.71,4.13,4.89,5.43,8.84,2.73S2108.28,414.75,2112.24,411.27Z"/><path d="M2061.31,557.65c7.08-1.78,13.66-3.31,20.16-5.14,2.61-.74,2.92-2.61,1-4.59-1-1-2.44-1.82-3.16-3-.64-1.06-.56-2.55-.8-3.85,1.17,0,2.55-.32,3.48.17,4.09,2.17,8,4.73,12.14,6.79.72.35,2.93-.75,3.35-1.68a11.41,11.41,0,0,0,.75-5.4c-.26-3.61,1.58-4.51,4.64-4.28,5.18,10.05,5.54,10.25,11.7,7.32-.17-2.75-1.15-5.52-.27-7.43,1.51-3.26,3.64-6.93,6.55-8.66,2.54-1.52,6.53-.6,9.69-.75.87,4.83.77,9.61,2.81,13.16.83,1.44,6.29.23,9.65.23l.31-1.57-6.85-5.69,8-6.4,2.87,5.38c5.28-2.26,4.51,3,6.38,6.42,2-1.27,3.81-2.25,5.41-3.52,2.4-1.91,3.92-2.73,4.7,1.44a5.66,5.66,0,0,0,3.89,3.61c5.89.54,11.84.39,17.76.63a7.31,7.31,0,0,1,3,1.18c9.12,5.12,18.08,10.55,27.4,15.26,3.43,1.74,7.68,2.08,11.62,2.57,3.25.4,6.59.08,10.05.08-4.84,7.22-17.22,10.37-25.61,6.58-2.67-1.2-5.06-3.05-7.76-4.16-2.2-.91-4.7-1-7-1.73-1.67-.51-3.57-1-4.76-2.19-7.21-6.91-16.32-8.58-25.67-10-23.78-3.71-46.91,0-70,5.49-24.33,5.74-48.35,13.37-73.63,13.76-6.88.1-13.83-1.2-20.67-2.33a6,6,0,0,1-3.82-3.88c-1.39-7.37-2.3-14.83-3.3-22.28-.1-.77.42-1.63,1.05-3.88,1.74,2.39,3.11,3.68,3.78,5.27,2.83,6.78,5.35,13.68,8.25,20.43.51,1.18,2.36,2.69,3.46,2.58,14.6-1.41,29.19-3.08,43.77-4.73.45,0,.83-.63,2.53-2-3.57-.87-6.15-1.78-8.79-2.07-6.17-.69-7.05-2.14-4.32-7.51.83-1.61,1.1-3.52,2-5.11a26.44,26.44,0,0,1,3-3.76,28.85,28.85,0,0,1,1.31,4.11c.31,1.84.33,3.74.47,5.63,1.15-.12,1.65,0,1.83-.21,1.45-1.58,2.83-3.22,4.23-4.83l1.83,6c.38,1.23.86,2.43,1.12,3.68S2061.07,555.2,2061.31,557.65Z"/><path d="M1723.7,488.23a38.62,38.62,0,0,1,4.86-33.13c-1.12-.56-1.76-1.19-2.32-1.12-25.06,3.1-47.42-4.65-69.2-16.13-13.46-7.1-27.35-13.82-43.08-14.51-5.46-.23-10.93,0-16.78,0,2.25-4.08,6.17-4.48,10.12-4.64,14.32-.58,27.52,3.76,40.56,9.12,12.22,5,24.41,10.4,37.08,14,8.5,2.42,17.82,1.95,26.75,3a146.24,146.24,0,0,1,17.85,2.76c4.37,1.06,6.49-.58,6-4.34-.9-7.16,2.31-11.27,8-14.79,4.24-2.6,5.92-7,4.32-12.05-1.29-4,.74-5.32,4.19-5.88,7.66-1.23,14.52,3.32,17.73,11.07a9.36,9.36,0,0,0,5.4,4.94c12,3.13,20.2,12.51,20.28,25a24.86,24.86,0,0,0,5.13,15.79c5.45,7.19,5.24,15.94-.06,25.63-.93-2.77-1.5-5-2.4-7-2-4.51-3.49-9.39-6.31-13.31a27,27,0,0,1-5.45-17.44c.44-13.23-3.61-18.62-16.46-22.29-3.66-1.05-5.22-3.2-6.2-6.82a20.27,20.27,0,0,0-4.8-8.7c-2.31-2.35-5-1.46-5.18,2.3-.37,7-4.16,11.41-9.82,15-1.69,1.07-3.39,3.76-3.32,5.65.23,6.22-2.2,11-6.19,15.42a32.77,32.77,0,0,0-8.54,19.91c-.34,4.17-.06,8.39-.06,12.59Z"/><path d="M1380.28,446.85l-21.91,3.25c3.11-4.36,5.82-7.47,7.72-11,2.54-4.73,5.22-9.63,6.3-14.79.53-2.5-1.8-6.42-4-8.52-6.07-5.83-7.38-12.18-3.43-19.39,4.12-7.53,2.66-14.43-1.21-21.44-4.37-7.95-7.49-16.12-2.6-25.1a3.3,3.3,0,0,0,.16-2.64c-5.42-10.74-.73-20.42,3.06-30.18.87-2.23,2.19-4.31,2.8-6.59.44-1.68,0-3.58,0-5.38.06-2.32.08-4.66.35-6.95.75-6.17,2.42-12.36,2.15-18.47-.18-4-3.19-7.84-4.8-11.79-.88-2.14-2-4.36-2.1-6.57-.07-2.5,1-5,1.5-7.55.93-4.4,1.47-8.36-2.78-12-3-2.52-4-6.54-1-10.93,4.75,2.36,9.53,4.52,14,7.13.89.52,1.39,2.93,1,4.18-1.69,6-3.81,11.88-5.58,17.86-.41,1.39-.67,3.48.06,4.44,6.06,8,5.37,16.87,4,25.92a44.58,44.58,0,0,0-.76,8.57c7.32-6.06,16.06-10.44,17.13-21.53.6-6.2,4.4-8.91,8.84-9.05-.36,4.95-1,9.94-1,14.94,0,6-2,11-7,14.19-12.63,8.17-19,20.67-24.12,34.05-2.74,7.21-1.63,13.37,7.43,16.67-1.82,1.13-2.5,1.62-3.24,2-6.93,3.51-8.73,7.48-6.17,14.8a104.74,104.74,0,0,0,4.81,10.52c3.44,7.23,4.25,14.54,0,21.65-3.64,6-2.82,10.93,2.29,15.68,5.34,4.95,6.09,11.06,3.38,17.71-.56,1.36-1,2.75-1.55,4.13C1371.42,441.73,1372.32,443.82,1380.28,446.85Z"/><path d="M1391.11,495.22c-2.23-.64-5-.65-6.59-2-4.8-4.2-9.32-2.65-14.19-.5s-9.91,4.37-15,.22a3.1,3.1,0,0,0-2.59-.49c-11.82,4.62-24.15-.22-36.23,2.09-7.47,1.43-10.69-1.89-11.14-8.48,9,7.1,18.34,3.39,27.62,2.28,2.35-.28,4.78.1,7.14-.14,2.72-.27,5.4-.92,8.11-1.36,3.44-.57,6.94-.88,10.32-1.69a68.36,68.36,0,0,0,12-3.88c.55-.25-.45-4-.82-6.76-9.65,6.81-18,8.46-26.94,1.75-1.55-1.16-4.24-1.08-6.4-1.11-5.34-.09-10.7.42-16,.05a27.43,27.43,0,0,1-10-2.58,54.48,54.48,0,0,1-12.24-8.74c2.34,0,5.56-1,6.88.16,10.83,9.51,23.18,5.63,35.29,4.83,3.48-.23,7,1.21,10.58,1.39,5,.26,10.12.07,15.08.07,1.6-6.26,0-9.26-4.94-8.9-20.61,1.5-40.14-4-59.73-9-4.7-1.21-9.25-2.95-13.88-4.45.15-.79.31-1.57.46-2.35,3,.37,6,.54,9,1.14,14.58,3,29.06,6.52,43.73,8.83,6.18,1,12.82-.19,19.14-1.09,9.25-1.32,11.89,0,15,8.62a86.58,86.58,0,0,0,4.55,10c3.8,7.46,7.73,14.85,11.62,22.26Z"/><path d="M1550.75,233.18c1.58-.81,3.09-2.14,4.74-2.33,5.41-.61,10.13,1.43,12.49,6.28a92.45,92.45,0,0,1,7,18.46,68,68,0,0,0,6.75,17c3.33,6.07,7.4,13.06,8,19.42A28.69,28.69,0,0,0,1600,312.07a8.93,8.93,0,0,0,4.48,2.38c15.24,1.66,29-2.59,42-10.33a152.71,152.71,0,0,1,22.72-10.95c10.66-4.11,17.46-2.23,26.49,6.06-2.94,3.67-7,5.49-11.11,3.72-10.28-4.48-19.48-.56-28.7,2.83s-18.05,8.37-27.5,11.05c-6.89,1.95-14.56,2-21.8,1.56-4.8-.27-5.76,1-5.64,5.23.16,5.51,0,11-.19,16.55-.17,4.34-1.25,10-5.94,9.62-4.46-.33-4.42-6.1-3.84-10.13.94-6.54,2.25-13,3.52-19.52,1-4.87.58-8.62-5.37-10.06-4.16-1-3.59-4.57-3.47-8.09.14-4.24-.65-8.52-1.26-12.75-.14-1-1-2.45-1.83-2.63-6.16-1.34-7.19-7.1-10.36-11.13s-3.06-8-3.21-12.72a90.11,90.11,0,0,0-3.38-19.88c-1.47-5.58-5.52-8.53-11.69-7.66a9.38,9.38,0,0,1-2.54-.33Z"/><path d="M1135.3,246.88c-10.46-.1-19.12,4.25-24.35,12.7-4.17,6.75-6.92,12.37-16.66,12.57-6.47.12-9.46,7.79-10.71,14-1.33,6.63-1.71,13.48-2.15,20.26a36.66,36.66,0,0,1-6.67,19.53c-.87,1.21-1.48,3.62-.86,4.7,2.79,4.83,1.93,9.44-.78,13.56-3.2,4.87-7.12,9.28-10.8,13.84-2.4,3-4.92,5.84-8.57,10.16-.23-4-1.44-7.52-.38-10.1,2.05-5,5.17-9.61,8.26-14.1,2.27-3.3,4.43-5.92,1.71-10.31-2.23-3.61-1-7.73,2.18-10.54,7.19-6.36,8.79-14.81,10.26-23.69a107.18,107.18,0,0,1,6.06-22.69c2.78-6.85,8.64-10.63,16.57-10.84,1.74-.05,4.14-2,5-3.67,4.8-9.5,12.59-15.32,22.41-18.33,2.87-.88,6.39.35,9.61.61Z"/><path d="M1694.87,474.81c6,6.52,6.34,10.79,1.79,18.2-2.24,3.64-3.68,6.33.49,9.81,1.5,1.25,1.8,4.82,1.49,7.18-2.08,15.84-4.43,31.65-6.82,47.46-.25,1.65-1.3,3.19-2,4.78l-1.41-.22V510.87l-1.56-.25a21.53,21.53,0,0,0-2.92,13.53,71.32,71.32,0,0,1-5.14,34,73.75,73.75,0,0,1-4.31,7.76l-1.84-.67c.38-2.14.37-4.44,1.19-6.4,4.86-11.66,6-23.61,5-36.21a50.19,50.19,0,0,1,3-20.41C1685.18,493,1690.19,484.45,1694.87,474.81Z"/><path d="M910.18,630.25c.37-6.57.47-12,1-17.4.71-6.88-1.56-11.92-7.34-16-11.19-7.93-14.54-20-8.53-32.55a80.12,80.12,0,0,1,12.44-18.71c10.33-11.47,21.35-22.32,32.29-33.22,2.6-2.59,6-4.39,9-6.56l1.34,1.48c-2.2,2.5-4.33,5.07-6.6,7.51-11.77,12.65-23.75,25.1-35.26,38-4.91,5.49-8.7,11.85-9.08,19.67s2.43,13.25,9.35,17.26C925.08,599.09,926.2,618.12,910.18,630.25Z"/><path d="M975.38,619.91c-1.5-4.45-2.54-9.12-4.62-13.27a59.18,59.18,0,0,0-8.65-13.16c-4.79-5.28-7-10.37-5.46-17.86,1.81-8.75,1.91-17.87,2.6-26.83,1.62-21.22,10.07-39.33,24.9-54.43,2.79-2.85,6.56-4.74,9.88-7.07l1.38,1.49a53.78,53.78,0,0,1-4.28,5c-18.76,17.23-27.47,38.51-26.3,64,.31,6.77-.68,13.61-.16,20.34a14.76,14.76,0,0,0,4.33,8.66c6.58,6.28,12.52,12.71,11.44,22.6-.39,3.64-1.92,7.16-2.93,10.73Z"/><path d="M1592.31,507.23a51.36,51.36,0,0,1,5-2.63c12.65-5.09,25.63-5.43,39-3.52,9.76,1.39,19.74,1.24,29.6,2,3.83.3,7.61,1.2,12.1,1.94-2.94,5.72-6.68,8-11.32,7.64-7.83-.64-16-.79-23.31-3.25-14.63-4.92-28.9-6.72-43.66-1.22-2.1.78-4.55.62-6.84.89Z"/><path d="M1151.5,250.8c11.41-7.62,35,1.79,35.62,14,.36,6.88,2.89,11.09,8.66,14.68,8.07,5,12.41,17.24,9.36,26.33-1.16-2.77-2.17-4.5-2.61-6.37-1.87-7.86-5.48-14.37-13-18.14-4.51-2.25-6.5-6.18-7.38-11-1.44-7.87-3.58-9.39-11.53-11a119.27,119.27,0,0,1-16.08-4.94C1153.35,254,1152.66,252.24,1151.5,250.8Z"/><path d="M1508.82,420.56c-1.38-1.41-3.1-2.62-4.08-4.26-5.07-8.47-6.09-17.5-3.57-27.06a5.89,5.89,0,0,0-1.17-4.79c-7.33-7.52-7.5-16.52-5.09-25.72.78-3,3.76-5.33,5.74-8l2.21.53c.47,2.69,1.27,5.37,1.32,8.07a34.9,34.9,0,0,1-1.12,7.62c-1.45,6.93-1,13,8.16,15.55-9.84,12.36-7.65,24.62-.1,36.9Z"/><path d="M1312.88,503.07c1.54.54,3.35.74,4.59,1.69,4.19,3.21,8.47,3.24,12.83.74s8.4-3,13.89-1.82c6.49,1.44,13.76-.74,20.7-1.12a32.49,32.49,0,0,1,8.65.55c1.34.29,3.14,2,3.29,3.18s-1.34,3-2.58,3.71c-1.84,1.05-4.16,2.07-6.16,1.87-9.43-.93-18.81-2.4-28.24-3.39a13.06,13.06,0,0,0-6.65,1.19c-4.92,2.35-9.89,3.25-14.79.67-2.5-1.31-4.45-3.66-6.65-5.53Z"/><path d="M1936.5,415.38c-3.94,6.65-5,6.67-10.82,3.28-4.83-2.85-10.22-4.74-15.25-7.29-1.85-.94-3.2-2.88-5.07-3.78-1.59-.76-4.59-1.57-5.22-.84a42.34,42.34,0,0,0-5.61,9c-1,2-1.29,4.3-2.78,6.31-2.8-5.56-1.47-10.77,1.46-15.62,2.78-4.62,7.33-6.51,12.6-6.49a3.77,3.77,0,0,1,2.75,1.55c3.68,6.39,9.85,6.62,15.78,5.72C1931.3,406.14,1932.59,412.09,1936.5,415.38Z"/><path d="M1089.74,398.68c1.84-6.08,6-6.79,9.7-7.48,6.26-1.18,12.57,2.2,15.71,8.63,2.36,4.85,5.58,6.81,10.91,6.1a21.11,21.11,0,0,1,8.72.28c1.94.59,3.34,3,5,4.53-1.43,1.4-2.62,3.43-4.33,4.09-8.67,3.37-20.73-2-24.15-10.53-3.31-8.24-8.14-10.29-16.57-7.07C1093.58,397.66,1092.38,397.92,1089.74,398.68Z"/><path d="M1539.14,293.83c-.49,1.26-.92,2.56-1.49,3.8-3.19,7-4.2,13.4,2.29,19.52,4,3.76,4,10.45.35,14-1.65,1.59-4.79,1.63-7.26,2.37-.4-2.18-1.87-5.08-1-6.42,2.61-4,1.29-7.07-.42-10.65-3.53-7.37-1.61-14.35,2.34-20.9.78-1.29,2.67-1.92,4-2.86Z"/><path d="M1821.69,417.55c2.38-5.86,6.76-6.69,11.16-6.4s4.17,4.4,4.51,7.62a37,37,0,0,1,.24,6c-.2,3.08.58,4.93,3.78,6.37,1.91.86,2.8,4,4.14,6.06-2.59.9-5.39,2.93-7.74,2.5-6.57-1.21-9.12-6.43-7.17-12.9a10,10,0,0,0,.85-2.6c0-2.49-.2-5-.33-7.46-2,.31-4,.68-6.08.92A23.85,23.85,0,0,1,1821.69,417.55Z"/><path d="M1003.94,373.15a33.71,33.71,0,0,1,4.74-3.32c9-4.32,18.68-5.24,28.54-4.53,1.4.11,3.31.49,4,1.46,1.59,2.12,3.87,4.92,3.5,7-.69,3.95-4.4,2.13-6.87,1.54-2.09-.51-4-1.89-6-2.63-7.31-2.65-14.46-1.8-21.53,1.09a42.55,42.55,0,0,1-5.67,1.5Z"/><path d="M2022.07,530c0,9.5.2,18-.21,26.51-.07,1.29-2.94,3.24-4.65,3.39-1.37.12-4.37-2.29-4.21-3.1,1.69-8.56,3.85-17,6-25.48C2019.09,530.94,2020.19,530.8,2022.07,530Z"/><path d="M1162.8,387.05c6.42,3.1,12.12,2.72,17.56-1.84.83-.69,4.19,1.64,6.37,2.57-.89,1.87-1.74,5.34-2.68,5.36a154,154,0,0,1-19.31-.86c-1.09-.11-2-2.27-3-3.48Z"/><path d="M1936.37,434.15a6.77,6.77,0,0,1,.15-2.38c.86-1.77,1.91-3.44,2.89-5.15.55,1.72,1,3.47,1.68,5.17,1.4,3.7,3,7.32,4.25,11.07.63,1.84,1.42,4.22.75,5.75-.6,1.37-3.49,3-4.65,2.58a7.12,7.12,0,0,1-3.66-4.66C1936.9,442.42,1936.78,438.16,1936.37,434.15Z"/><path d="M2040,530.08c-.58,6.88-.84,13.19-1.85,19.39-.21,1.32-3.09,3-4.78,3-1.31,0-4.06-2.74-3.82-3.35,2.46-6.4,5.38-12.62,8.28-18.83C2038,530,2039.16,530.16,2040,530.08Z"/><path d="M1701.88,554.47c-1.36-7-2.81-13-3.46-19.08-.14-1.31,2.44-3.82,4.07-4.12,1.32-.24,4.49,2.1,4.43,3.16a175.66,175.66,0,0,1-2.28,17.78C1704.55,552.81,1703.41,553.26,1701.88,554.47Z"/><path d="M895.39,332.18c3.46,5.31,6.76,9.54,9,14.27.83,1.74-.83,4.66-1.36,7-1.92-.65-5.16-.88-5.54-2a110.57,110.57,0,0,1-3.57-15.9C893.73,334.42,895,333.05,895.39,332.18Z"/><path d="M1172.8,358.94c-2.39-2.71-4.6-4.09-4.6-5.48,0-1.83,1.41-3.94,2.77-5.42a37.94,37.94,0,0,1,6.44-5.3,27.06,27.06,0,0,1,4.57-2.08,27.61,27.61,0,0,1-.8,4.67,37.6,37.6,0,0,1-3,6.94C1177,354.26,1175.25,355.94,1172.8,358.94Z"/><path d="M1747,463.35c2.23,3.86,4.7,7.25,6.16,11,.67,1.75-.63,4.25-1,6.41-2.31-.82-5.13-1.07-6.83-2.58C1742.71,475.87,1744.26,466.13,1747,463.35Z"/><path d="M1116,335.19c-.14-5.77-.4-11.54-.26-17.3,0-.53,2.9-1.73,3.9-1.31,1.63.68,4.17,2.81,3.93,3.7-1.32,5.07-3.35,10-5.14,14.92Z"/><path d="M1420.66,342c1.39,1.81,2.09,2.83,2.9,3.76,1.34,1.53,2.83,2.93,4.1,4.51a22.8,22.8,0,0,1,3.68,5.37c.29.74-1.47,3.27-1.9,3.17-2-.44-4.35-1-5.72-2.44C1420.3,352.86,1418,348.78,1420.66,342Z"/><path d="M1574.6,382.49c-3.83-1.29-7.32-2.31-10.65-3.71-.83-.34-1.14-1.92-1.68-2.92a16.25,16.25,0,0,1,3.24-1.19,37.93,37.93,0,0,1,7.27-.58,4.9,4.9,0,0,1,5,6.21C1577.62,381.2,1575.77,381.75,1574.6,382.49Z"/><path d="M913.3,370.33c-1,4.06-2.13,5.81-5.22,3.81a43.33,43.33,0,0,1-7.17-5.85c-.82-.82-.69-2.57-1-3.89a21.07,21.07,0,0,1,3.82.14,13.56,13.56,0,0,1,4.5,1.59A50.3,50.3,0,0,1,913.3,370.33Z"/><path d="M1339.92,270.07c3.21,6,1.67,13.73-2,14.21-1.32.17-3.25,0-4-.85s-.4-2.81.17-3.91C1335.72,276.52,1337.65,273.72,1339.92,270.07Z"/><path d="M1416.94,388.22l-12.28,5.64c-.23-3.19-.93-5.68-.29-7.77.23-.75,3.65-.74,5.6-.71a65.26,65.26,0,0,1,6.67.69Z"/><path d="M1991.23,460.21c0,5.13-1.26,8.2-5.63,8.35-.69,0-2.25-2.33-2-2.67,1.81-2.69,4-5.16,6-7.7C1990.34,459.15,1991.14,460.1,1991.23,460.21Z"/><path d="M1766.47,481.11l6.25-7.27,3.89,7.72-1,1.5Z"/><path d="M1333.12,363.81c-1.3-1.66-2.59-3.33-4.92-6.33l8.8-1c-.65,2.56-1.3,5.13-1.94,7.69Z"/><path d="M1543.84,548.89c-2.12-12.28,3.53-18.38,16.51-17.53,0,4.44.13,8.93-.12,13.4a3.64,3.64,0,0,1-2.45,2.4C1553.16,547.92,1548.48,548.35,1543.84,548.89Z"/><path d="M1434.18,536.77a10.25,10.25,0,0,0,2.34,2.06,14.16,14.16,0,0,0,3.44.64c.12-1.12.76-2.58.28-3.28-2-2.92-1.5-6,1.29-6.92,2.21-.77,6.71,0,7.57,1.5a16,16,0,0,1,1.39,10.1c-.59,3.08-3.42,4.38-7.28,4.09-3.39-.26-6.93,1.38-11.68,2.47.16-3.3.34-6.86.52-10.41Z"/><path d="M1530,482c-1.19,6.24-2,11.68-3.37,17-.35,1.42-2.15,3.41-3.36,3.46a6.79,6.79,0,0,1-5-2.39c-.73-.94-.2-3.32.46-4.75,2-4.43,4.34-8.74,6.68-13a17.4,17.4,0,0,1,2.68-3Z"/><path d="M1469.76,535.24l2.43,2.74c2.67-.64,5.22-2.09,7-1.43a8.17,8.17,0,0,1,4.35,5.27c.64,3.22-2.2,3.6-4.79,3.45a42,42,0,0,1-6.56-.46c-1.78-.4-4.55-1.21-4.85-2.37-.59-2.22.26-4.82.52-7.26Z"/><path d="M1539.25,486.05c2.4,3.77,5,7,6.5,10.74.45,1.11-2,3.74-3.57,5.12-.51.45-3.57-.66-3.73-1.41a80.62,80.62,0,0,1-1.39-11.91C1537,487.87,1538.32,487.08,1539.25,486.05Z"/><path d="M1559.69,489.91l-6.11,4.41c.16-2.83-.26-5,.41-5.39,1.35-.86,3.29-.79,5-1.11Z"/><path d="M1490.53,499.12c-10.19,1.44-19.68,7.12-30.82,1.43-4.31-2.19-11.29-.82-16.48.78-8.23,2.53-15.6,3.05-23.26-1.61-3.46-2.1-7.75-2.84-11.66-4.19,0-.54-.07-1.08-.1-1.62,2.62-.21,6-1.58,7.76-.46,11.27,7.09,22.16,4.35,33.64.55,4.72-1.56,10.39-.11,15.61-.29,3.35-.12,6.93,0,10-1.21C1483.21,489.47,1489.18,491.66,1490.53,499.12Z"/><path d="M1424.41,469.06c5.53-4.82,12.27-5.63,18.88-3.47,5.45,1.78,10.56,2,16.17,1.7,6.82-.34,13.71.92,20.58,1.24a19.39,19.39,0,0,0,5.87-1c7.31-2,10.71-1.07,14.52,4-6.44,6.43-17.51,7.5-25.5,4-4.81-2.13-10.59-2.1-16-2.92-5.55-.85-11.11-1.68-16.69-2.3a77.81,77.81,0,0,0-10.24-.41,62.57,62.57,0,0,0-7.28,1Z"/><path class="cls-1" d="M837,580.56c-52.81-9.48-106.82-7.63-159.81-1.28-43.6,5.23-86.85,13.65-130.37,19.7-10.85,1.51-21.73,2.87-32.62,4q-7.78.81-15.59,1.39c-5.45.41-8.8.62-13.56.78-1,0-2.09.07-3.13.09H482c-1.3,0-2.61,0-3.91,0h-.75a6,6,0,0,1-.34,4c31,.29,62.33-3.65,92.76-7.92,42.48-6,84.71-14.14,127.27-19.3,9.8-1.19,19.62-2.23,29.46-3q4.63-.36,9.29-.64l3.87-.22.72,0,1.07,0c2.58-.11,5.16-.21,7.73-.28l3.1-.08,1.07,0h1.08c2.84,0,5.67,0,8.5,0h.45l.93,0,3.09.08c5.25.16,7.86.3,13.37.71a296,296,0,0,1,30,3.86c6.8,1.22,13.89,1.09,20.73.64C832.26,583,842.89,581.63,837,580.56Z"/><path class="cls-1" d="M2636.78,523.72c-42-9.46-85.51-11.18-128.41-9.75-35.3,1.18-70.48,4.59-105.75,6.34-8.8.44-17.6.78-26.42,1q-6.28.12-12.59.09c-4.41,0-7.11-.06-10.94-.21l-2.52-.11q1.39.09.09,0l-3.14-.2-.61,0a3.54,3.54,0,0,1-.46,2.71c24.94,1.92,50.29.94,75-.32,34.43-1.75,68.77-5,103.23-6.23,7.94-.28,15.88-.46,23.82-.43,2.5,0,5,0,7.5.08l3.12.06h.59l.86,0c2.08.07,4.15.14,6.23.24l2.49.11.86,0,.88.06,6.83.48.36,0,.75.07,2.48.22c4.21.41,6.3.65,10.71,1.24,8.05,1.07,16,2.54,24,4.32a80.68,80.68,0,0,0,16.63,1.59C2632.89,525.11,2641.5,524.78,2636.78,523.72Z"/><path d="M107.19,468.37c12.32-1.79,24.72-3.1,37.16-3.86,6.82-.41,10.05-.55,16.54-.71l3.83-.08c6.13-.14-1.93,0,1.7,0s7,0,10.52,0a21.61,21.61,0,0,1,2.67,0l3.83.08c3.19.07,6.38.17,9.57.28,6.24.21-1.39-.07,2.22.08l4.79.22q5.74.28,11.49.64c12.17.76,24.32,1.8,36.46,3,52.66,5.16,104.93,13.33,157.48,19.3,57.13,6.48,116.7,12.2,173.87,3.54,47-7.13,88.38-29.35,129.93-50,23.48-11.65,47.36-22.79,72.74-30.31a285.07,285.07,0,0,1,41.09-8.93c6.16-.88,12.36-1.52,18.43-1.86-.71,0,5.44-.24,3.37-.17-1.7.06,6.51-.1,2.14-.06h3.75c-4.66,0,5,.17,1.77,0,8.21.33,17.6,1.28,25.65-.64l1.89-.43c.89-.32.89-.64,0-.95-.53-1.08-8-1.05-8.62-1.07-31.3-1.28-62.9-.3-93.7,5.46a330.54,330.54,0,0,0-71.83,22.46c-43.39,19-83.81,44.5-129.73,58.08a212,212,0,0,1-35.88,7.42c-3.19.37-6.39.69-9.6.91l-2,.11c.46,0-5.86.27-3.23.17-1.61.06-3.22.08-4.83.13-3.65.12,4.41,0-1.78,0-1.61,0-3.23,0-4.84,0h.15q-1.94,0-3.87-.09c-5.9-.16-10-.37-16.79-.78q-9.65-.57-19.28-1.39c-13.48-1.13-26.94-2.49-40.38-4-53.84-6.05-107.37-14.47-161.32-19.7-65.58-6.35-132.42-8.2-197.76,1.28-7.34,1.07,5.82,2.4,6.73,2.45,8.46.45,17.24.58,25.65-.64Z"/><path d="M2235.36,449.37c10.45-1.79,21-3.1,31.53-3.86,5.79-.41,8.52-.55,14-.71l3.24-.08c5.2-.14-1.63,0,1.45,0s6,0,8.93,0a15.5,15.5,0,0,1,2.26,0l3.25.08c2.71.07,5.41.17,8.12.28,5.29.21-1.18-.07,1.88.08l4.07.22q4.88.28,9.75.64c10.33.76,20.64,1.8,30.93,3,44.69,5.16,89,13.33,133.64,19.3,48.46,6.48,99,12.2,147.53,3.54,39.89-7.13,75-29.35,110.24-50,19.93-11.65,40.19-22.79,61.73-30.31a210.92,210.92,0,0,1,34.87-8.93,156.52,156.52,0,0,1,15.63-1.86c-.6,0,4.62-.24,2.87-.17-1.45.06,5.52-.1,1.81-.06h3.18c-3.95,0,4.2.17,1.5,0,7,.33,14.94,1.28,21.77-.64l1.6-.43c.76-.32.76-.64,0-.95-.45-1.08-6.8-1.05-7.31-1.07-26.56-1.28-53.37-.3-79.51,5.46a250.73,250.73,0,0,0-61,22.46c-36.82,19-71.12,44.5-110.08,58.08a156.5,156.5,0,0,1-30.44,7.42c-2.71.37-5.43.69-8.15.91l-1.68.11c.38,0-5,.27-2.74.17-1.37.06-2.74.08-4.1.13-3.1.12,3.74,0-1.51,0-1.37,0-2.74,0-4.11,0h.13c-1.1,0-2.19-.05-3.29-.09-5-.16-8.51-.37-14.24-.78q-8.19-.57-16.37-1.39c-11.43-1.13-22.85-2.49-34.25-4-45.69-6.05-91.11-14.47-136.89-19.7-55.65-6.35-112.36-8.2-167.81,1.28-6.23,1.07,4.94,2.4,5.71,2.45,7.19.45,14.63.58,21.77-.64Z"/><path d="M214,431.44c53.85-34.44,114.4-60.1,177.8-77.15,33.6-9,68.83-16.8,103.87-19.51a139.67,139.67,0,0,1,54.6,6.46c16.47,5.31,32,12.64,47.73,19.42q55.54,23.93,113.21,43.64c2.53.87,5.9.71,8.55.4.81-.09,4.63-.7,2.24-1.52q-55.6-19.06-109.39-42c-16-6.84-31.68-14.31-48.25-20A170.41,170.41,0,0,0,511.3,332c-18.73-.25-37.36,2.24-55.75,5.19Q429,341.47,403,347.64a694.06,694.06,0,0,0-100.52,31.77A608.92,608.92,0,0,0,202,430.85c-1.3.84,4.11,1.35,4.37,1.37,2.11.12,5.81.42,7.69-.78Z"/><path class="cls-2" d="M2056.5,339.85c73.51-19,156.17-33.15,242.71-42.56,45.86-5,94-9.26,141.79-10.76a461.61,461.61,0,0,1,74.52,3.56c22.48,2.94,43.67,7,65.16,10.72q75.83,13.19,154.53,24.07a69.67,69.67,0,0,0,11.67.22c1.11-.06,6.32-.39,3.06-.84q-75.9-10.51-149.32-23.17c-21.8-3.78-43.25-7.89-65.86-11a550.64,550.64,0,0,0-72.47-5.07c-25.57-.14-51,1.23-76.1,2.86q-36.21,2.36-71.8,5.76c-47,4.46-92.95,10.31-137.22,17.52C2129,319,2083,328.43,2040.05,339.52c-1.79.46,5.6.75,6,.75,2.88.07,7.93.24,10.49-.42Z"/></g></svg>